<svg id="Layer_1" data-name="Layer 1" xmlns="http://www.w3.org/2000/svg" xmlns:xlink="http://www.w3.org/1999/xlink" viewBox="0 0 265.87 270.8"><defs><style>.cls-1{fill:url(#linear-gradient);}.cls-2{fill:url(#New_Gradient_Swatch_1);}.cls-3{fill:#231f20;}.cls-4{fill:url(#New_Gradient_Swatch_1-2);}.cls-5{fill:#000100;}</style><linearGradient id="linear-gradient" x1="159.02" y1="272.64" x2="132.5" y2="526.06" gradientUnits="userSpaceOnUse"><stop offset="0.02" stop-color="#ed1c24"/><stop offset="1" stop-color="#be1e2d"/></linearGradient><linearGradient id="New_Gradient_Swatch_1" x1="118.84" y1="242.42" x2="118.84" y2="278.33" gradientTransform="translate(5.81 3.29) rotate(-0.22)" xlink:href="#linear-gradient"/><linearGradient id="New_Gradient_Swatch_1-2" x1="60.8" y1="253.99" x2="60.8" y2="301.09" gradientTransform="matrix(1, 0, 0, 0.99, 5.75, -12.66)" xlink:href="#linear-gradient"/></defs><title>Payfast Final Stacked Logo</title><path class="cls-1" d="M232.72,159.4a109.9,109.9,0,0,1-20.33,9.5,95.58,95.58,0,0,1-24,6c-3.49.58-7.06,1.07-10.69,1.44l-.06,0-.06,0c-33.66,2.87-62.41-4.37-78.84-19.84-.15-.11-.27-.29-.41-.4,0,.6-.08,1.22-.11,1.85a28.63,28.63,0,0,0,7.23,18.7c13.34,15.31,39,23.66,68.84,24.13,19.89.13,38-3.6,51.9-10.29,6.92-3.39,12.85-7.5,17.36-12.65a28.71,28.71,0,0,0,7.55-18.6,27.17,27.17,0,0,0-3-12.44A69.49,69.49,0,0,1,232.72,159.4ZM174,138.23c-31.47,2.4-58.57-3.47-75.42-16.9a29.31,29.31,0,0,0,7.16,17c13.33,15.33,39,23.65,68.84,24.13,19.88.13,38-3.61,51.87-10.31,6.92-3.36,12.89-7.48,17.38-12.65s7.49-11.53,7.52-18.59a27.45,27.45,0,0,0-4.54-15.09C242.41,111.53,223.86,134.42,174,138.23Zm.91-14.17c19.88.12,38-3.62,51.86-10.31,6.93-3.38,12.89-7.49,17.4-12.66a28.51,28.51,0,0,0,7.52-18.57,28.62,28.62,0,0,0-7.2-18.7c-13.37-15.34-39-23.64-68.86-24.12-19.9-.15-38,3.58-51.87,10.26-6.94,3.41-12.88,7.51-17.39,12.66a28.82,28.82,0,0,0-7.55,18.59,28.83,28.83,0,0,0,7.24,18.71C119.41,115.25,145.12,123.56,174.94,124.06ZM116.85,66.15c7.24-8.83,29.78-17.47,56.12-17,17.62.11,33.43,3.86,44.09,9.32,5.38,2.68,9.38,5.75,11.76,8.65S232,72.39,232,74.6s-.88,4.59-3.32,7.47c-7.23,8.85-29.77,17.47-56.15,17-17.6-.13-33.4-3.88-44.06-9.31a37.91,37.91,0,0,1-11.77-8.65c-2.4-2.94-3.2-5.3-3.2-7.54S114.39,69,116.85,66.15Z" transform="translate(-42.02 -39.7)"/><path class="cls-2" d="M121.63,244.61q-3.1-3.51-8.75-3.5l-17.2.07-1.25,6.47,17.19-.06a5.1,5.1,0,0,1,4.24,1.85,5.4,5.4,0,0,1,1,4.59l-.25,1.11-.09.76L100.6,256a16,16,0,0,0-10.22,3.7A15.39,15.39,0,0,0,84.72,269l-.17.68q-1.17,5.63,1.88,9.27t8.71,3.62l22.52-.09,6-28.77Q124.73,248.14,121.63,244.61ZM112.41,276l-15.93.06a5.36,5.36,0,0,1-4.33-1.85,5,5,0,0,1-1-4.59l.17-.68a7.48,7.48,0,0,1,2.85-4.61,8.05,8.05,0,0,1,5.09-1.89l15.84-.06Zm47.9-35.05L153.16,276l-16.44.07a5.41,5.41,0,0,1-4.34-1.87,5.13,5.13,0,0,1-1-4.62l5.8-28.55-6.59,0-5.8,28.54c-.79,3.77-.14,6.88,1.92,9.33s5,3.66,8.75,3.65l16.52-.06-.5,2.4a8.13,8.13,0,0,1-2.94,4.59,7.79,7.79,0,0,1-5,1.95l-22.52.08L119.67,298,142.2,298a15.68,15.68,0,0,0,10.09-3.81,16.16,16.16,0,0,0,5.79-9.27l8.91-44Z" transform="translate(-42.02 -39.7)"/><path class="cls-3" d="M229.19,282.34l-22.53.08q-5.66,0-8.7-3.65t-1.88-9.34l.17-.68a15.54,15.54,0,0,1,5.66-9.37,15.94,15.94,0,0,1,10.22-3.73l15.93-.06.08-.77.25-1.11a5.48,5.48,0,0,0-1-4.63,5.1,5.1,0,0,0-4.25-1.87l-18.53.07,1.26-6.52,18.54-.07q5.64,0,8.74,3.53t2,9.12Zm-5.25-6.5,2.69-13.73-15.85.06a8,8,0,0,0-5.08,1.91,7.61,7.61,0,0,0-2.86,4.64l-.16.69a5.09,5.09,0,0,0,1,4.62A5.34,5.34,0,0,0,208,275.9Z" transform="translate(-42.02 -39.7)"/><path class="cls-3" d="M272.35,271a13,13,0,0,1-5.71,8.5,17.07,17.07,0,0,1-9.76,2.87l-22.26.08,1.34-6.51,22.27-.09q6.6,0,7.52-4.82l.34-1.54q1-4.8-5.59-4.78l-10,0q-5.56,0-8.57-2.8-3.43-3.06-2.35-8.47l.34-1.54a13,13,0,0,1,5.71-8.5,17.06,17.06,0,0,1,9.75-2.86l22.35-.09L276.45,247l-22.35.08q-6.6,0-7.61,4.83l-.33,1.54q-.93,4.8,5.67,4.78l10,0q5.56,0,8.57,2.79,3.36,3.08,2.26,8.47Z" transform="translate(-42.02 -39.7)"/><path class="cls-3" d="M302.48,282.36l-10.45,0q-5.65,0-8.74-3.68t-1.92-9.39l4.54-22.54-4.12,0,1.43-6.74,4.12,0,3-15,6.68,0-3,15,13.87-.05-1.43,6.73-13.87,0L288,269.3a5.15,5.15,0,0,0,5.26,6.54l10.45,0Z" transform="translate(-42.02 -39.7)"/><path class="cls-4" d="M91.7,244.83A15.29,15.29,0,0,1,86,253.9a15.71,15.71,0,0,1-10,3.72l-22.46.08-5.06,24.81-6.5,0,11.53-56,29-.11a10.06,10.06,0,0,1,10.35,12.69Zm-6.5,0,1.16-5.69a5,5,0,0,0-1-4.52,5.12,5.12,0,0,0-4.22-1.83l-22.47.09-3.81,18.43,22.46-.08a7.82,7.82,0,0,0,5-1.86A8,8,0,0,0,85.2,244.85Z" transform="translate(-42.02 -39.7)"/><path class="cls-3" d="M217.56,231.82l-27.28.11a8.56,8.56,0,0,0-8.05,6.55l-2.5,12.46,17-.07-1.35,6.61-16.94.07-5.17,25-6.61,0,8.93-44a16.67,16.67,0,0,1,16-13.1l27.28-.1Z" transform="translate(-42.02 -39.7)"/><path class="cls-5" d="M170.53,302.69h-6.11L163,306.47h-1.19L166.94,293H168l5.08,13.45h-1.18Zm-5.75-1h5.39l-2.7-7.32Z" transform="translate(-42.02 -39.7)"/><path class="cls-5" d="M179.43,306.47V293h4a6.21,6.21,0,0,1,3.16.8,5.47,5.47,0,0,1,2.14,2.25,7.21,7.21,0,0,1,.75,3.34v.68a7.11,7.11,0,0,1-.76,3.36,5.36,5.36,0,0,1-2.17,2.23,6.54,6.54,0,0,1-3.22.79Zm2.33-11.56v9.69h1.53a3.51,3.51,0,0,0,2.82-1.15,5,5,0,0,0,1-3.3v-.75a5.15,5.15,0,0,0-1-3.34,3.38,3.38,0,0,0-2.76-1.15Z" transform="translate(-42.02 -39.7)"/><path class="cls-5" d="M194.12,301.48v5h-2.34V293h5.14a5.17,5.17,0,0,1,3.58,1.18,3.94,3.94,0,0,1,1.32,3.1,3.82,3.82,0,0,1-1.29,3.08,5.48,5.48,0,0,1-3.63,1.1Zm0-1.88h2.8a2.75,2.75,0,0,0,1.9-.59,2.15,2.15,0,0,0,.66-1.69,2.32,2.32,0,0,0-.66-1.74,2.55,2.55,0,0,0-1.83-.67h-2.87Z" transform="translate(-42.02 -39.7)"/><path class="cls-5" d="M214.59,300.1a8.31,8.31,0,0,1-.68,3.46,5.18,5.18,0,0,1-1.95,2.29,5.73,5.73,0,0,1-5.84,0,5.22,5.22,0,0,1-2-2.27,8,8,0,0,1-.71-3.41v-.76a8.08,8.08,0,0,1,.7-3.47,5.23,5.23,0,0,1,2-2.3,5.31,5.31,0,0,1,2.92-.8,5.38,5.38,0,0,1,2.91.79,5.09,5.09,0,0,1,2,2.27,8.11,8.11,0,0,1,.7,3.45Zm-2.33-.71a5.8,5.8,0,0,0-.85-3.42,3,3,0,0,0-4.76,0,5.74,5.74,0,0,0-.87,3.36v.78a5.8,5.8,0,0,0,.86,3.42,3,3,0,0,0,4.78,0,5.94,5.94,0,0,0,.84-3.45Z" transform="translate(-42.02 -39.7)"/><path class="cls-5" d="M231.45,302.27a4.79,4.79,0,0,1-1.52,3.25,5,5,0,0,1-3.43,1.13,4.72,4.72,0,0,1-2.64-.75,4.84,4.84,0,0,1-1.78-2.12,7.57,7.57,0,0,1-.64-3.13V298.9a7.57,7.57,0,0,1,.63-3.17,4.83,4.83,0,0,1,1.81-2.14,4.93,4.93,0,0,1,2.71-.75,4.48,4.48,0,0,1,4.86,4.38h-1.14q-.44-3.42-3.72-3.42a3.53,3.53,0,0,0-2.92,1.37,5.93,5.93,0,0,0-1.08,3.77v1.65a5.92,5.92,0,0,0,1.06,3.71,3.37,3.37,0,0,0,2.85,1.39,3.82,3.82,0,0,0,2.69-.85,4.12,4.12,0,0,0,1.12-2.57Z" transform="translate(-42.02 -39.7)"/><path class="cls-5" d="M233.35,301.32a5.89,5.89,0,0,1,.55-2.59,4.19,4.19,0,0,1,3.9-2.44,4.14,4.14,0,0,1,3.23,1.4,5.41,5.41,0,0,1,1.23,3.71v.23a5.88,5.88,0,0,1-.56,2.61,4.13,4.13,0,0,1-1.57,1.78,4.32,4.32,0,0,1-2.32.63,4.1,4.1,0,0,1-3.22-1.4,5.37,5.37,0,0,1-1.24-3.71Zm1.1.31a4.54,4.54,0,0,0,.93,2.94,3.14,3.14,0,0,0,4.86,0,4.68,4.68,0,0,0,.92-3v-.22a5.1,5.1,0,0,0-.42-2.09,3.39,3.39,0,0,0-1.19-1.48,3.11,3.11,0,0,0-1.75-.52,3,3,0,0,0-2.41,1.16,4.65,4.65,0,0,0-.94,3Z" transform="translate(-42.02 -39.7)"/><path class="cls-5" d="M245.55,296.48l0,1.62a3.6,3.6,0,0,1,3.23-1.81,2.81,2.81,0,0,1,3,1.94,3.8,3.8,0,0,1,1.43-1.44,4,4,0,0,1,2-.5q3.21,0,3.27,3.51v6.67h-1.1v-6.59a3,3,0,0,0-.58-2,2.36,2.36,0,0,0-1.85-.65,3,3,0,0,0-2,.77,2.74,2.74,0,0,0-.91,1.83v6.62h-1.11V299.8a2.71,2.71,0,0,0-.6-1.92,2.42,2.42,0,0,0-1.83-.63,2.79,2.79,0,0,0-1.8.6,3.49,3.49,0,0,0-1.1,1.76v6.86h-1.11v-10Z" transform="translate(-42.02 -39.7)"/><path class="cls-5" d="M269.33,301.57a6,6,0,0,1-1,3.71,3.3,3.3,0,0,1-2.77,1.37,3.7,3.7,0,0,1-3.14-1.44v5.1h-1.1V296.48h1l.05,1.41a3.54,3.54,0,0,1,3.13-1.6,3.3,3.3,0,0,1,2.81,1.36,6.14,6.14,0,0,1,1,3.77Zm-1.1-.19a5.15,5.15,0,0,0-.79-3,2.52,2.52,0,0,0-2.19-1.11,3,3,0,0,0-1.74.49,3.09,3.09,0,0,0-1.12,1.42V304a3,3,0,0,0,1.14,1.32,3.27,3.27,0,0,0,1.74.45,2.5,2.5,0,0,0,2.18-1.12A5.57,5.57,0,0,0,268.23,301.38Z" transform="translate(-42.02 -39.7)"/><path class="cls-5" d="M278.09,306.47a4.86,4.86,0,0,1-.22-1.4,3.71,3.71,0,0,1-1.48,1.17,4.57,4.57,0,0,1-1.9.41,3.41,3.41,0,0,1-2.34-.8,2.78,2.78,0,0,1,.33-4.34,5.79,5.79,0,0,1,3.38-.85h2v-1.14a2.18,2.18,0,0,0-.66-1.68,2.72,2.72,0,0,0-1.92-.62,3,3,0,0,0-1.91.59,1.76,1.76,0,0,0-.76,1.43H271.5a2.58,2.58,0,0,1,1.11-2.07,4.28,4.28,0,0,1,2.72-.87,3.87,3.87,0,0,1,2.64.84,3,3,0,0,1,1,2.33v4.73a5.67,5.67,0,0,0,.31,2.16v.12Zm-3.48-.8a3.76,3.76,0,0,0,2-.53,3.1,3.1,0,0,0,1.27-1.44v-2.19h-2a5,5,0,0,0-2.59.6,1.87,1.87,0,0,0-.31,3A2.36,2.36,0,0,0,274.61,305.67Z" transform="translate(-42.02 -39.7)"/><path class="cls-5" d="M283,296.48l0,1.7a3.91,3.91,0,0,1,1.4-1.4,3.59,3.59,0,0,1,1.86-.49,3,3,0,0,1,2.39.91,4,4,0,0,1,.79,2.71v6.56h-1.1V299.9a3,3,0,0,0-.56-2,2.23,2.23,0,0,0-1.79-.66,2.87,2.87,0,0,0-1.82.64,3.82,3.82,0,0,0-1.16,1.73v6.85h-1.1v-10Z" transform="translate(-42.02 -39.7)"/><path class="cls-5" d="M295.46,304.88l2.92-8.4h1.19l-4.27,11.68-.22.52a2.69,2.69,0,0,1-2.54,1.82,3,3,0,0,1-.85-.13v-.91l.57.05a2,2,0,0,0,1.31-.4,3.09,3.09,0,0,0,.86-1.38l.49-1.35-3.77-9.9h1.21Z" transform="translate(-42.02 -39.7)"/></svg>