<svg id="Layer_1" data-name="Layer 1" xmlns="http://www.w3.org/2000/svg" xmlns:xlink="http://www.w3.org/1999/xlink" viewBox="0 0 352.8 339.84"><defs><style>.cls-1{fill:url(#linear-gradient);}</style><linearGradient id="linear-gradient" x1="148.01" y1="445.37" x2="99.97" y2="904.46" gradientUnits="userSpaceOnUse"><stop offset="0.02" stop-color="#ed1c24"/><stop offset="1" stop-color="#be1e2d"/></linearGradient></defs><title>_</title><path class="cls-1" d="M281.49,240.2a196.69,196.69,0,0,1-36.79,17.25c-12.11,5-27,8.79-43.52,10.88-6.33,1.05-12.79,1.94-19.38,2.6l-.1,0-.1,0c-61,5.22-113.07-7.9-142.83-35.92-.29-.19-.5-.52-.76-.72-.06,1.07-.12,2.19-.16,3.34-.14,12.75,5.16,24.55,13.08,33.86,24.16,27.75,70.67,42.88,124.71,43.72,36,.23,68.86-6.54,94-18.63,12.53-6.15,23.25-13.6,31.45-22.92s13.6-20.92,13.68-33.69a48.81,48.81,0,0,0-5.49-22.53C301.92,225.74,292.71,233.25,281.49,240.2ZM175.18,201.86c-57,4.37-106.1-6.27-136.62-30.6.74,11.53,5.74,22.18,13,30.72,24.14,27.77,70.67,42.84,124.69,43.72,36,.23,68.86-6.54,94-18.67,12.52-6.11,23.34-13.56,31.47-22.9s13.58-20.92,13.62-33.72a49.39,49.39,0,0,0-8.23-27.32C299.09,153.54,265.48,195,175.18,201.86Zm1.65-25.67c36,.23,68.86-6.52,93.95-18.67,12.55-6.11,23.36-13.56,31.51-22.92,8.11-9.2,13.58-20.9,13.64-33.63s-5.12-24.51-13.06-33.88c-24.2-27.79-70.65-42.83-124.71-43.7-36-.25-68.85,6.5-93.94,18.59C71.6,48.16,60.85,55.57,52.68,64.9S39.14,85.84,39,98.57s5.2,24.53,13.1,33.92C76.24,160.24,122.82,175.31,176.83,176.19ZM71.6,71.31c13.14-16,54-31.65,101.68-30.85,31.92.2,60.54,7,79.87,16.9,9.74,4.85,17,10.42,21.3,15.66s5.82,9.59,5.82,13.6-1.61,8.32-6,13.54c-13.08,16-53.94,31.65-101.7,30.85-31.9-.23-60.52-7.05-79.83-16.9-9.7-4.85-17-10.5-21.31-15.64-4.35-5.34-5.8-9.62-5.8-13.68S67.14,76.51,71.6,71.31Z"/></svg>